<svg xmlns="http://www.w3.org/2000/svg" xmlns:xlink="http://www.w3.org/1999/xlink"><defs><symbol fill="none" viewBox="0 0 39 38" id="icon-circle"><path fill-rule="evenodd" clip-rule="evenodd" d="M19.985 0c-10.489 0-19 8.51-19 19s8.511 19 19 19c10.469 0 19-8.51 19-19s-8.531-19-19-19zm12.55 8.758a16.154 16.154 0 013.668 10.098c-.536-.103-5.894-1.196-11.293-.515-.123-.268-.226-.557-.35-.845-.33-.783-.7-1.587-1.072-2.35 5.977-2.431 8.697-5.935 9.047-6.388zm-12.55-5.955c4.122 0 7.893 1.545 10.757 4.08-.288.412-2.74 3.689-8.51 5.852-2.659-4.884-5.606-8.881-6.06-9.5a16.504 16.504 0 013.813-.432zm-6.903 1.525c.432.577 3.317 4.595 6.017 9.376-7.584 2.02-14.28 1.978-15.002 1.978 1.05-5.028 4.451-9.211 8.985-11.354zM3.747 19.02v-.495c.7.02 8.572.124 16.67-2.308.475.907.908 1.834 1.32 2.761-.206.062-.433.124-.639.186-8.367 2.7-12.818 10.077-13.189 10.695a16.19 16.19 0 01-4.162-10.84zm16.238 16.218c-3.75 0-7.212-1.278-9.953-3.421.288-.598 3.585-6.945 12.735-10.139.041-.02.062-.02.103-.041 2.288 5.914 3.215 10.88 3.462 12.302a15.961 15.961 0 01-6.347 1.299zm9.047-2.782c-.165-.99-1.03-5.73-3.153-11.561 5.09-.804 9.541.515 10.098.7-.701 4.514-3.298 8.408-6.945 10.86z" fill="#676767" /></symbol><symbol fill="none" viewBox="0 0 28 38" id="icon-download"><path d="M27.085 38H.485v-3.8h26.6V38zm-13.3-7.6L2.385 19l2.68-2.679 6.82 6.802V0h3.8v23.123l6.821-6.802L25.186 19l-11.4 11.4z" fill="#676767" /></symbol><symbol fill="none" viewBox="0 0 38 38" id="icon-insta"><path d="M19.004 3.422c5.077 0 5.679.022 7.675.111 1.856.082 2.858.394 3.527.654a5.877 5.877 0 012.182 1.418 5.845 5.845 0 011.418 2.182c.26.668.571 1.678.653 3.526.09 2.004.111 2.606.111 7.676 0 5.077-.022 5.679-.11 7.676-.083 1.855-.394 2.858-.654 3.526a5.879 5.879 0 01-1.418 2.182 5.846 5.846 0 01-2.182 1.418c-.669.26-1.678.572-3.527.653-2.004.09-2.605.112-7.675.112-5.078 0-5.68-.023-7.676-.112-1.856-.081-2.858-.393-3.526-.653a5.877 5.877 0 01-2.183-1.418 5.845 5.845 0 01-1.417-2.182c-.26-.668-.572-1.678-.654-3.526-.089-2.005-.111-2.606-.111-7.676 0-5.078.022-5.679.111-7.676.082-1.856.394-2.858.654-3.526a5.877 5.877 0 011.417-2.182 5.845 5.845 0 012.183-1.418c.668-.26 1.678-.572 3.526-.654 1.997-.089 2.598-.11 7.676-.11zm0-3.422c-5.16 0-5.805.022-7.832.111-2.019.09-3.407.416-4.61.884-1.254.49-2.316 1.135-3.37 2.197C2.13 4.246 1.485 5.308.995 6.555.527 7.765.2 9.145.11 11.165.022 13.199 0 13.845 0 19.004c0 5.159.022 5.805.111 7.831.09 2.02.416 3.408.884 4.61.49 1.255 1.135 2.316 2.197 3.37a9.29 9.29 0 003.363 2.19c1.21.468 2.59.795 4.61.884 2.026.089 2.672.111 7.831.111 5.16 0 5.805-.022 7.832-.111 2.019-.09 3.407-.416 4.61-.884a9.29 9.29 0 003.363-2.19 9.288 9.288 0 002.19-3.362c.467-1.21.794-2.591.883-4.61.089-2.027.111-2.673.111-7.832 0-5.16-.022-5.805-.111-7.831-.09-2.02-.416-3.408-.884-4.61a8.9 8.9 0 00-2.175-3.378 9.29 9.29 0 00-3.362-2.19c-1.21-.468-2.591-.794-4.61-.883C24.809.022 24.163 0 19.003 0z" fill="#676767" /><path d="M19.004 9.242c-5.39 0-9.762 4.372-9.762 9.762 0 5.389 4.372 9.761 9.762 9.761 5.389 0 9.761-4.372 9.761-9.761 0-5.39-4.372-9.762-9.761-9.762zm0 16.094a6.333 6.333 0 010-12.664 6.333 6.333 0 010 12.664zM31.43 8.856a2.28 2.28 0 11-2.279-2.279 2.284 2.284 0 012.28 2.279z" fill="#676767" /></symbol><symbol fill="none" viewBox="0 0 49 38" id="icon-mail"><path d="M43.735 38h-38a4.75 4.75 0 01-4.75-4.75V4.543A4.75 4.75 0 015.735 0h38a4.75 4.75 0 014.75 4.75v28.5a4.75 4.75 0 01-4.75 4.75zm-38-28.813V33.25h38V9.187l-19 12.663-19-12.664zm1.9-4.437l17.1 11.4 17.1-11.4h-34.2z" fill="#676767" /></symbol><symbol fill="none" viewBox="0 0 41 38" id="icon-play"><path d="M39.622 18.946c0 9.86-8.462 17.946-19.018 17.946-10.557 0-19.019-8.086-19.019-17.946C1.585 9.086 10.047 1 20.604 1 31.16 1 39.622 9.086 39.622 18.946z" stroke="#676767" stroke-width="2" /><path fill-rule="evenodd" clip-rule="evenodd" d="M26.654 17.096a2.25 2.25 0 010 3.7l-7.14 4.939c-1.492 1.032-3.53-.036-3.53-1.85v-9.877c0-1.815 2.037-2.883 3.53-1.85l7.14 4.938z" fill="#676767" /></symbol><symbol viewBox="0 0 29 38" id="icon-short-up"><path d="M16.71 9.096l8.526 8.503 3.35-3.349L14.335 0 .085 14.25l3.348 3.349 8.526-8.503V38h4.75V9.096z" /></symbol><symbol fill="none" viewBox="0 0 40 38" id="icon-star"><path d="M17.854 1.322l-4.882 9.825-10.923 1.58c-1.96.283-2.744 2.68-1.324 4.053l7.903 7.643-1.87 10.798c-.336 1.952 1.735 3.413 3.47 2.5L20 32.625l9.772 5.098c1.735.905 3.806-.55 3.47-2.501l-1.87-10.798 7.903-7.643c1.42-1.373.635-3.77-1.324-4.052l-10.923-1.58-4.882-9.826c-.875-1.751-3.41-1.774-4.292 0z" fill="#676767" /></symbol><symbol fill="none" viewBox="0 0 20 38" id="icon-star-half"><path d="M20 0c-.852 0-1.705.438-2.146 1.321l-4.882 9.828-10.923 1.574c-1.96.282-2.744 2.68-1.324 4.053l7.903 7.645-1.87 10.8c-.336 1.938 1.72 3.415 3.47 2.502L20 32.631V0z" fill="#676767" /></symbol><symbol fill="none" viewBox="0 0 39 28" id="icon-youtube"><path d="M38.607 6.4s-.371-2.62-1.514-3.77c-1.448-1.514-3.066-1.522-3.808-1.61C27.971.632 19.993.632 19.993.632h-.015s-7.979 0-13.293.386c-.742.09-2.36.097-3.807 1.61C1.735 3.78 1.37 6.4 1.37 6.4S.985 9.48.985 12.553v2.88c0 3.072.379 6.152.379 6.152s.37 2.62 1.506 3.77c1.448 1.515 3.348 1.463 4.194 1.626 3.043.29 12.921.378 12.921.378s7.986-.014 13.3-.393c.742-.089 2.36-.096 3.808-1.61 1.142-1.15 1.514-3.77 1.514-3.77s.378-3.073.378-6.153v-2.88c0-3.073-.378-6.153-.378-6.153zM16.059 18.928V8.248l10.264 5.359-10.264 5.321z" fill="#676767" /></symbol></defs></svg>